<mxfile host="app.diagrams.net" modified="2025-03-23T07:32:55.450Z" agent="Mozilla/5.0 (Macintosh; Intel Mac OS X 10_15_7) AppleWebKit/537.36 (KHTML, like Gecko) Chrome/133.0.0.0 Safari/537.36" version="23.1.4" etag="jPfYwnf3NI3BBi4yDTN3" type="github">
  <diagram name="페이지-1" id="7KEcyx4RCyQ9Gu-f0f6z">
    <mxGraphModel>
      <root>
        <mxCell id="0" />
        <mxCell id="1" parent="0" />
      </root>
    </mxGraphModel>
  </diagram>
</mxfile>
